# xmcd
#
# Track frame offsets: 
#        150
#        17962
#        31107
#        43797
#        55467
#        68205
#        78075
#        92900
#        104975
#        122310
#        132440
#        147025
#
# Disc length: 2215 seconds
#
# Revision: 4
# Processed by: cddbd v1.5.2PL0 Copyright (c) Steve Scherf et al.
# Submitted via: ExactAudioCopyFreeDBPlugin 1.0
#
DISCID=a508a50c
DTITLE=A.J. Croce - That's Me In The Bar
DYEAR=1995
DGENRE=Blues
TTITLE0=That's Me In The Bar
TTITLE1=Sign On The Line
TTITLE2=She's Waiting For Me
TTITLE3=Checkin' In
TTITLE4=Music Box
TTITLE5=Callin'Home
TTITLE6=Night Out On The Town
TTITLE7=Pass Me By
TTITLE8=I Meant What I Said
TTITLE9=Maybe I'm To Blame
TTITLE10=I Confess
TTITLE11=Some People Call It Love
EXTD=
EXTT0=
EXTT1=
EXTT2=
EXTT3=
EXTT4=
EXTT5=
EXTT6=
EXTT7=
EXTT8=
EXTT9=
EXTT10=
EXTT11=
PLAYORDER=
